<svg width="61" height="61" viewBox="0 0 61 61" fill="none" xmlns="http://www.w3.org/2000/svg">
<rect x="0.490723" y="0.115662" width="59.9107" height="59.9107" rx="29.9554" fill="#8D0D19"/>
<path d="M25.1738 15.4308C27.6058 12.7347 31.4172 11 35.6998 11C43.0452 11 48.9998 16.1034 48.9998 22.4C48.9998 26.1791 46.8528 29.5288 43.5506 31.6036C43.4683 31.654 43.3847 31.7021 43.2998 31.748V39.443C43.2998 39.8213 43.1869 40.191 42.9755 40.5047C42.7641 40.8184 42.4638 41.0619 42.1132 41.2039C41.7626 41.3459 41.3776 41.3801 41.0075 41.302C40.6373 41.2238 40.2989 41.037 40.0356 40.7654L37.8696 38.5348C39.9007 36.1332 41.0958 33.1844 41.0958 29.9981C41.0958 22.2708 34.0696 15.9476 25.1738 15.4308Z" fill="white"/>
<path d="M26.9315 41.1834L19.9642 48.3654C19.7009 48.637 19.3625 48.8239 18.9924 48.902C18.6222 48.9801 18.2372 48.946 17.8866 48.8039C17.536 48.6619 17.2357 48.4184 17.0244 48.1047C16.813 47.791 16.7 47.4213 16.7 47.043V39.348C16.6151 39.3022 16.5315 39.254 16.4492 39.2036C13.1451 37.1288 11 33.7791 11 30C11 23.7034 16.9546 18.6 24.3 18.6C31.6454 18.6 37.6 23.7034 37.6 30C37.6 35.1794 33.5701 39.5532 28.0506 40.9402C27.6807 41.035 27.3074 41.1162 26.9315 41.1834Z" fill="white"/>
</svg>
