<svg width="75" height="75" viewBox="0 0 75 75" fill="none" xmlns="http://www.w3.org/2000/svg">
<path fill-rule="evenodd" clip-rule="evenodd" d="M67.4555 10.3242H43.7133V4.72969L4.6875 10.7531V63.5508L43.7133 70.2727V61.9805H67.4555C68.1745 62.0169 68.8787 61.7671 69.4141 61.2857C69.9495 60.8044 70.2725 60.1306 70.3125 59.4117V12.8906C70.2719 12.1722 69.9487 11.499 69.4133 11.0181C68.878 10.5372 68.1741 10.2878 67.4555 10.3242ZM67.8305 59.8383H43.6336L43.5938 55.4109H49.4227V50.2547H43.5492L43.5211 47.2078H49.4227V42.0516H43.4766L43.4484 39.0047H49.4227V33.8484H43.4297V30.8016H49.4227V25.6453H43.4297V22.5984H49.4227V17.4422H43.4297V12.7547H67.8305V59.8383Z" fill="#20744A"/>
<path d="M52.7041 17.4352H62.8361V22.5914H52.7041V17.4352ZM52.7041 25.6406H62.8361V30.7969H52.7041V25.6406ZM52.7041 33.8461H62.8361V39.0023H52.7041V33.8461ZM52.7041 42.0516H62.8361V47.2078H52.7041V42.0516ZM52.7041 50.257H62.8361V55.4133H52.7041V50.257Z" fill="#20744A"/>
<path fill-rule="evenodd" clip-rule="evenodd" d="M14.8756 25.0148L19.9053 24.7266L23.067 33.4195L26.8029 24.368L31.8326 24.0797L25.7248 36.4219L31.8326 48.7945L26.5146 48.4359L22.924 39.0047L19.3311 48.0773L14.4443 47.6461L20.1209 36.7172L14.8756 25.0148Z" fill="white"/>
</svg>
