<svg width="12" height="9" viewBox="0 0 12 9" fill="none" xmlns="http://www.w3.org/2000/svg">
<path d="M0.600361 0.0157948H11.4007C11.51 0.0161371 11.6172 0.0462961 11.7107 0.103024C11.8042 0.159752 11.8804 0.2409 11.9312 0.337735C11.982 0.43457 12.0054 0.543426 11.9989 0.652583C11.9925 0.76174 11.9564 0.867064 11.8945 0.957222L6.49433 8.75744C6.27052 9.08085 5.73171 9.08085 5.5073 8.75744L0.107147 0.957222C0.0446404 0.867253 0.00798496 0.761874 0.00116339 0.652535C-0.00565818 0.543197 0.0176151 0.43408 0.0684546 0.33704C0.119294 0.239999 0.195755 0.158747 0.289531 0.102111C0.383307 0.045475 0.49081 0.0156221 0.600361 0.0157948Z" fill="white"/>
</svg>
